<svg width="56" height="56" fill="none" xmlns="http://www.w3.org/2000/svg"><path d="M55.07 9.333h-22.4a.933.933 0 00-.934.933v8.4a.933.933 0 001.228.885l1.173-.39a2.426 2.426 0 110 4.612l-1.173-.392a.933.933 0 00-1.228.885v7.467h-7.467a.933.933 0 00-.885 1.228l.391 1.174a2.426 2.426 0 11-4.612 0l.391-1.174a.933.933 0 00-.885-1.228h-8.4a.933.933 0 00-.933.933v22.4c0 .516.418.934.933.934h44.8a.933.933 0 00.934-.934v-44.8a.933.933 0 00-.934-.933zm-23.286 37.04a.937.937 0 00-.048.293v7.467H11.203V33.6h6.172a4.293 4.293 0 108.189 0h6.172v7.466a.933.933 0 001.228.885l1.173-.391a2.426 2.426 0 110 4.612l-1.173-.39a.933.933 0 00-1.18.59zm22.352 7.76H33.603v-6.172a4.293 4.293 0 100-8.19V33.6h7.466a.933.933 0 00.885-1.229l-.391-1.173a2.427 2.427 0 114.612 0l-.39 1.173a.933.933 0 00.884 1.229h7.467v20.533zm0-22.4h-6.172a4.293 4.293 0 10-8.19 0h-6.171v-6.172a4.252 4.252 0 003.816-.61 4.293 4.293 0 00-3.816-7.58V11.2h20.533v20.533z" fill="#728DBD"/><path d="M26.85 8.039a4.293 4.293 0 00-2.583 0V.933A.933.933 0 0023.333 0H.933A.933.933 0 000 .933v22.4c0 .516.418.934.933.934H8.04a4.293 4.293 0 108.189 0h7.105a.933.933 0 00.934-.934v-7.105a4.293 4.293 0 002.582-8.19zm-.539 6.4a2.42 2.42 0 01-1.51 0l-1.173-.39a.933.933 0 00-1.228.884V22.4h-7.467a.933.933 0 00-.884 1.228l.39 1.174a2.427 2.427 0 11-4.612 0l.391-1.174a.933.933 0 00-.885-1.228H1.867V1.867H22.4v7.466a.933.933 0 001.228.885l1.174-.39a2.427 2.427 0 111.51 4.612z" fill="#728DBD"/></svg>