<svg width="66" height="66" fill="none" xmlns="http://www.w3.org/2000/svg"><path d="M32.992 2.047A1.03 1.03 0 0031.97 3.09v6.19c.03 1.345 2.032 1.345 2.062 0V3.09a1.031 1.031 0 00-1.041-1.043zm10.473 2.58l-3.097 5.154c-.707 1.183 1.068 2.243 1.774 1.06l3.09-5.154c.423-.675-.046-1.555-.896-1.578-.396.027-.701.22-.87.518zm-21.87-.518c-.785.04-1.239.91-.821 1.578l3.098 5.154c.678 1.282 2.577.143 1.766-1.06l-3.092-5.154a1.031 1.031 0 00-.95-.518zm22.023 11.665l-5.154 5.152a1.03 1.03 0 000 1.454l18.56 18.568a1.031 1.031 0 001.461 0l5.154-5.154a1.031 1.031 0 000-1.462L45.081 15.773c-.57-.57-.966-.495-1.463 0zm-22.685 0L2.366 34.331a1.031 1.031 0 000 1.462l5.16 5.154c.403.4 1.053.4 1.455 0L27.547 22.38c.4-.402.4-1.052 0-1.454l-5.16-5.152c-.52-.52-1.044-.41-1.454 0zm.731 2.183l3.692 3.692L8.25 38.755l-3.692-3.692 17.106-17.106zm22.686 0l17.098 17.106-3.694 3.692L40.65 21.657l3.7-3.7zm-16.108 7.112c-.998-.104-1.638 1.409-.533 1.966l3.117 1.68-2.437 1.313a1.018 1.018 0 00-.24.179l-5.155 5.156a3.962 3.962 0 000 5.584 3.962 3.962 0 005.583 0l3.508-3.51c.844.675 2.419 1.75 5.044 1.75 3.552 0 5.885-2.366 5.885-2.366 1.013-.972-.486-2.47-1.458-1.458 0 0-1.792 1.76-4.427 1.76-2.636 0-4.427-1.76-4.427-1.76a1.031 1.031 0 00-1.458 0l-4.125 4.125a1.86 1.86 0 01-2.667 0 1.86 1.86 0 010-2.667l5.05-5.05 8.81-4.742c.976-.508.584-1.989-.517-1.946-.162.008-.32.05-.463.129l-4.328 2.33-4.316-2.322a1.12 1.12 0 00-.446-.15v-.001zM45.37 38.145c-.926 0-1.383 1.125-.72 1.77l6.188 6.188a1.86 1.86 0 010 2.666 1.86 1.86 0 01-2.667 0l-1.03-1.03a1.034 1.034 0 00-.74-.313c-.925 0-1.382 1.125-.719 1.77l1.031 1.032a1.86 1.86 0 010 2.666 1.86 1.86 0 01-2.667 0l-1.03-1.03c-.973-1.013-2.471.486-1.459 1.457l1.031 1.032a1.86 1.86 0 010 2.666 1.86 1.86 0 01-2.667 0l-1.03-1.03a1.034 1.034 0 00-.74-.313c-.925 0-1.382 1.125-.719 1.77l1.031 1.032a1.86 1.86 0 010 2.666 1.87 1.87 0 01-1.988.438c-1.306-.516-2.043 1.472-.717 1.933a3.953 3.953 0 004.163-.912 3.927 3.927 0 001.132-2.993 3.926 3.926 0 002.993-1.132 3.927 3.927 0 001.132-2.993 3.927 3.927 0 002.993-1.132 3.927 3.927 0 001.132-2.993 3.927 3.927 0 002.993-1.132 3.962 3.962 0 000-5.584l-1.333-1.333 2.024-2.024c1.013-.972-.486-2.47-1.458-1.458l-2.024 2.024-3.396-3.396c-.194-.2-.46-.312-.74-.312zm-32.344 3.144l2.02 2.02-1.337 1.337a3.96 3.96 0 000 5.582c.818.818 1.916 1.184 2.995 1.13a3.93 3.93 0 001.132 2.995 3.93 3.93 0 002.995 1.132c-.054 1.08.312 2.177 1.13 2.995.818.818 1.916 1.184 2.995 1.13a3.93 3.93 0 001.132 2.995 3.967 3.967 0 005.587 0l2.055-2.063a3.967 3.967 0 000-5.587 3.922 3.922 0 00-2.786-1.15c-.067 0-.134.015-.201.02.055-1.081-.312-2.18-1.13-2.998a3.938 3.938 0 00-2.794-1.148c-.067 0-.134.016-.201.02a3.923 3.923 0 00-1.132-2.987 3.949 3.949 0 00-2.794-1.159l-.2.02a3.923 3.923 0 00-1.131-2.989 3.945 3.945 0 00-2.796-1.15c-.676 0-1.346.186-1.95.528l-2.13-2.131c-1.056-.963-2.387.483-1.459 1.458zm5.54 2.185c.478 0 .957.188 1.333.564a1.867 1.867 0 010 2.673l-2.063 2.054a1.857 1.857 0 01-2.665 0 1.857 1.857 0 010-2.664l2.063-2.063a1.876 1.876 0 011.331-.564zm4.126 4.127c.479 0 .956.188 1.332.564a1.854 1.854 0 010 2.663l-2.063 2.064a1.857 1.857 0 01-2.665 0 1.857 1.857 0 010-2.664l2.065-2.063a1.876 1.876 0 011.331-.564zm4.127 4.125c.479 0 .956.188 1.332.564a1.857 1.857 0 010 2.665l-2.063 2.062a1.857 1.857 0 01-2.665 0 1.857 1.857 0 010-2.664l2.063-2.063a1.88 1.88 0 011.333-.564zm4.125 4.127c.479 0 .956.188 1.332.564a1.855 1.855 0 010 2.663l-2.063 2.064a1.857 1.857 0 01-2.665 0 1.857 1.857 0 010-2.664l2.065-2.063a1.876 1.876 0 011.331-.564z" fill="#728DBD"/></svg>