<svg width="60" height="60" fill="none" xmlns="http://www.w3.org/2000/svg"><g clip-path="url(#clip0_6588_97)" fill="#728DBD"><path d="M54.133 46.653a9.6 9.6 0 001.835-5.606 1 1 0 00-.95-1.047 1.011 1.011 0 00-1.047.95 7.658 7.658 0 01-1.407 4.46C50.611 47.876 46.91 48 46.186 48a1 1 0 000 2c.885 0 5.422-.161 7.946-3.347zM34 34a1 1 0 10-2 0 4 4 0 004 4v1a1 1 0 102 0v-1a4 4 0 100-8v-4a2 2 0 012 2 1 1 0 102 0 4 4 0 00-4-4v-1a1 1 0 10-2 0v1a4 4 0 000 8v4a2 2 0 01-2-2zm0-6a2 2 0 012-2v4a2 2 0 01-2-2zm4 4a2 2 0 110 4v-4z"/><path d="M59.164 33.77C56.7 23.3 51.222 17.234 47.266 14.065c4.961.374 6.558 2.438 6.605 2.5a1 1 0 001.656-1.121c-.072-.108-1.461-2.092-5.5-3A4.587 4.587 0 0051.7 9a5.135 5.135 0 00-3.824-4.658c.088-.723.133-1.45.134-2.177A2 2 0 0045.229.327c-.505.228-.974.53-1.392.893a2.578 2.578 0 01-1.87.78 2.58 2.58 0 01-1.867-.78 4.6 4.6 0 00-6.242 0 2.572 2.572 0 01-1.872.78 2.571 2.571 0 01-1.866-.78 5.722 5.722 0 00-1.388-.892 2 2 0 00-2.777 1.838c0 2.488.492 6.926 3.607 9.906A27.582 27.582 0 0025 15.542V8c0-2.28-3.225-4-7.5-4S10 5.72 10 8v10.075C6.493 18.425 4 20 4 22v25.435C1.584 48.084 0 49.4 0 51v5c0 2.28 3.225 4 7.5 4 3.823 0 6.8-1.377 7.387-3.3A11.232 11.232 0 0020.5 58c4.275 0 7.5-1.72 7.5-4V41c0-2.28-3.225-4-7.5-4-.5 0-1.002.025-1.5.075V22c0-2.19-2.977-3.858-7-3.987v-7.244a11.389 11.389 0 005.5 1.23 11.389 11.389 0 005.5-1.23v6.82a32.302 32.302 0 00-1.974 2.43 1 1 0 001.612 1.18 30.397 30.397 0 012.062-2.5l.023-.025a26.284 26.284 0 016.637-5.32 6.32 6.32 0 001.543.514l-2.578 2.406a1 1 0 001.366 1.462l4-3.731h.319v3a1 1 0 002 0V14h.319l4 3.73a1 1 0 001.366-1.461L41.1 13.853a6.301 6.301 0 001.533-.515c2.643 1.43 11.331 7.08 14.585 20.89 1.415 6.013.905 10.612-1.515 13.667C52.607 51.8 47.235 52 46.19 52H32a1 1 0 000 2h14.19c1.7 0 7.505-.351 11.08-4.863 2.818-3.56 3.456-8.73 1.894-15.366zM7.5 49c3.307 0 5.5 1.2 5.5 2s-2.193 2-5.5 2S2 51.8 2 51s2.193-2 5.5-2zm0 9C4.193 58 2 56.8 2 56v-2.231a11.388 11.388 0 005.5 1.23 11.388 11.388 0 005.5-1.23v2.23c0 .8-2.193 2-5.5 2zm13-2c-3.307 0-5.5-1.2-5.5-2V43.769a11.39 11.39 0 005.5 1.23 11.39 11.39 0 005.5-1.23v10.23c0 .8-2.193 2-5.5 2zM26 41c0 .8-2.193 2-5.5 2S15 41.8 15 41s2.193-2 5.5-2 5.5 1.2 5.5 2zm-13 0v7.23A11.388 11.388 0 007.5 47c-.5 0-1.002.024-1.5.075V24.769a11.39 11.39 0 005.5 1.23 11.39 11.39 0 005.5-1.23v12.666c-2.416.649-4 1.965-4 3.565zm4-19c0 .8-2.193 2-5.5 2S6 22.8 6 22s2.193-2 5.5-2 5.5 1.2 5.5 2zm.5-12C14.193 10 12 8.8 12 8s2.193-2 5.5-2S23 7.2 23 8s-2.193 2-5.5 2zm32.2-1c0 1.639-1.775 2.984-4 3a5.17 5.17 0 01-1.106-.127 11.848 11.848 0 002.921-5.53A3.064 3.064 0 0149.7 9zM28.868 2.78A4.514 4.514 0 0031.986 4a4.513 4.513 0 003.12-1.22 2.632 2.632 0 013.74 0A4.51 4.51 0 0041.967 4a4.513 4.513 0 003.121-1.22c.277-.245.585-.452.917-.616 0 1.857-.345 6.448-3.567 8.965a4.29 4.29 0 01-2.51.859 21.627 21.627 0 002.041-4.721 1 1 0 00-1.928-.536A18.347 18.347 0 0137.519 12h-1.028a18.517 18.517 0 01-2.523-5.27 1 1 0 00-1.927.538 21.647 21.647 0 002.043 4.725 4.3 4.3 0 01-2.562-.863c-3.222-2.516-3.567-7.107-3.567-8.958.331.159.639.363.913.608z"/><path d="M54.133 46.653a9.6 9.6 0 001.835-5.606 1 1 0 00-.95-1.047 1.013 1.013 0 00-1.047.95 7.658 7.658 0 01-1.407 4.46C50.611 47.876 46.91 48 46.186 48a1 1 0 100 2c.885 0 5.422-.161 7.946-3.347z"/></g><defs><clipPath id="clip0_6588_97"><path fill="#fff" d="M0 0h60v60H0z"/></clipPath></defs></svg>