<svg width="29" height="29" fill="none" xmlns="http://www.w3.org/2000/svg"><path d="M20.91 9.9a1.132 1.132 0 010 1.601l-7.6 7.6a1.133 1.133 0 01-1.602 0L8.09 15.483a1.132 1.132 0 111.602-1.602l2.817 2.817 6.799-6.799a1.133 1.133 0 011.602 0zM29 14.5C29 22.515 22.514 29 14.5 29 6.485 29 0 22.514 0 14.5 0 6.485 6.486 0 14.5 0 22.515 0 29 6.486 29 14.5zm-2.266 0c0-6.763-5.472-12.234-12.234-12.234-6.763 0-12.234 5.472-12.234 12.234 0 6.763 5.472 12.234 12.234 12.234 6.763 0 12.234-5.472 12.234-12.234z" fill="#BF0403"/></svg>