<svg width="66" height="66" viewBox="0 0 66 66" fill="none" xmlns="http://www.w3.org/2000/svg">
<path d="M32.9917 2.04693C32.4214 2.05082 31.9639 2.52002 31.9706 3.09032V9.27982C32.0004 10.6246 34.0032 10.6246 34.0331 9.27982V3.09032C34.0403 2.51215 33.57 2.04127 32.9917 2.04693ZM43.4654 4.62711L40.3676 9.7813C39.6613 10.9643 41.4358 12.0238 42.1421 10.8408L45.2318 5.68657C45.6553 5.01169 45.1862 4.13193 44.3355 4.10851C43.9402 4.13579 43.6347 4.32988 43.4654 4.62711ZM21.5956 4.10946C20.8098 4.1496 20.3564 5.01953 20.7738 5.68657L23.8716 10.8408C24.5503 12.1227 26.4494 10.9838 25.638 9.7813L22.5463 4.62711C22.3527 4.2888 21.9849 4.08845 21.5956 4.10946ZM43.6185 15.7735L38.4642 20.9256C38.0643 21.3279 38.0643 21.9776 38.4642 22.3799L57.0247 40.9484C57.4277 41.3523 58.082 41.3523 58.485 40.9484L63.6392 35.7942C64.0445 35.391 64.0445 34.7351 63.6392 34.3319L45.0807 15.7735C44.5101 15.2029 44.1147 15.2775 43.6185 15.7735ZM20.933 15.7735L2.36645 34.3319C1.96118 34.7351 1.96118 35.391 2.36645 35.7942L7.52672 40.9484C7.92899 41.3483 8.57867 41.3483 8.98094 40.9484L27.5475 22.3799C27.9474 21.9776 27.9474 21.3279 27.5475 20.9256L22.3872 15.7735C21.8667 15.2538 21.3433 15.3633 20.933 15.7735ZM21.6641 17.9568L25.3561 21.6487L8.2498 38.755L4.55785 35.063L21.6641 17.9568ZM44.3496 17.9568L61.4478 35.063L57.7538 38.755L40.6496 21.6568L44.3496 17.9568ZM28.2424 25.0688C27.2445 24.9655 26.6044 26.4776 27.7086 27.0346L30.8265 28.7145L28.3894 30.0277C28.3012 30.0752 28.2205 30.1356 28.1497 30.2069L22.9935 35.3632C21.4595 36.8972 21.4595 39.4125 22.9935 40.9465C24.5274 42.4805 27.0427 42.4805 28.5767 40.9465L32.0854 37.4378C32.9294 38.1119 34.504 39.1861 37.1288 39.1861C40.6809 39.1861 43.0142 36.8214 43.0142 36.8214C44.0267 35.8494 42.5279 34.3507 41.556 35.3632C41.556 35.3632 39.7643 37.1235 37.1288 37.1235C34.4934 37.1235 32.7017 35.3632 32.7017 35.3632C32.299 34.9606 31.6462 34.9606 31.2435 35.3632L27.1185 39.4882C26.3672 40.2394 25.203 40.2394 24.4517 39.4882C23.7004 38.7369 23.7004 37.5727 24.4517 36.8214L29.5012 31.7719L38.3111 27.0285C39.2882 26.5206 38.8959 25.0403 37.7955 25.0829C37.6331 25.0907 37.4744 25.1327 37.3323 25.2119L33.0038 27.5423L28.6875 25.22C28.5344 25.1319 28.3849 25.0836 28.2424 25.0691V25.0688ZM45.3688 38.1447C44.4433 38.1449 43.9865 39.2697 44.6497 39.9152L50.8372 46.1027C51.5885 46.8539 51.5885 48.0182 50.8372 48.7695C50.0859 49.5207 48.9217 49.5207 48.1705 48.7695L47.1392 47.7382C46.9451 47.5386 46.6784 47.426 46.4 47.426C45.4745 47.4262 45.0177 48.5509 45.681 49.1964L46.7122 50.2277C47.4635 50.979 47.4635 52.1432 46.7122 52.8944C45.9609 53.6457 44.7967 53.6457 44.0455 52.8944L43.0142 51.8631C42.0422 50.8506 40.5435 52.3495 41.556 53.3214L42.5872 54.3527C43.3385 55.1039 43.3385 56.2682 42.5872 57.0195C41.8359 57.7707 40.6717 57.7707 39.9205 57.0195L38.8892 55.9882C38.6951 55.7886 38.4284 55.676 38.15 55.676C37.2245 55.6762 36.7677 56.8009 37.431 57.4464L38.4622 58.4776C39.2135 59.2289 39.2135 60.3931 38.4622 61.1444C37.9137 61.6929 37.1408 61.8288 36.4742 61.5815C35.1683 61.0662 34.431 63.0544 35.7572 63.5151C37.1602 64.0356 38.8005 63.7224 39.9205 62.6027C40.7386 61.7846 41.1069 60.6882 41.0524 59.6096C42.131 59.6642 43.2273 59.2959 44.0455 58.4776C44.8636 57.6595 45.2319 56.5632 45.1774 55.4846C46.256 55.5391 47.3523 55.1709 48.1705 54.3527C48.9886 53.5346 49.3569 52.4383 49.3024 51.3596C50.381 51.4142 51.4773 51.0459 52.2955 50.2277C53.8294 48.6937 53.8294 46.1784 52.2955 44.6444L50.9621 43.311L52.9863 41.2868C53.9987 40.3148 52.5 38.8162 51.5281 39.8286L49.5038 41.8528L46.108 38.4569C45.9138 38.2574 45.6472 38.1447 45.3688 38.1447ZM13.0254 41.2888L15.0456 43.309L13.7082 44.6464C12.1742 46.1804 12.1742 48.6937 13.7082 50.2277C14.5262 51.0457 15.6236 51.412 16.7032 51.3576C16.6487 52.4375 17.017 53.5345 17.8352 54.3527C18.6533 55.1708 19.7504 55.5391 20.8302 55.4846C20.7758 56.5643 21.1422 57.6617 21.9602 58.4796C22.7782 59.2977 23.8756 59.6641 24.9552 59.6096C24.9007 60.6894 25.2691 61.7866 26.0872 62.6047C27.6212 64.1387 30.1405 64.1387 31.6745 62.6047L33.7289 60.5422C35.2629 59.0082 35.2629 56.4889 33.7289 54.9549C32.9619 54.1879 31.9557 53.8048 30.9433 53.8048C30.8758 53.8048 30.8094 53.8204 30.7419 53.8243C30.7969 52.744 30.4305 51.6457 29.612 50.8272C28.845 50.0602 27.8307 49.6792 26.8183 49.6792C26.7511 49.6792 26.6842 49.6948 26.6169 49.6987C26.6703 48.6222 26.3021 47.5287 25.485 46.7117C24.718 45.9447 23.7037 45.5535 22.6913 45.5535L22.4919 45.573C22.5459 44.4959 22.1776 43.4016 21.36 42.584C20.593 41.817 19.5767 41.4339 18.5643 41.4339C17.8883 41.4339 17.2181 41.6198 16.6146 41.9616L14.4836 39.8306C13.4282 38.8678 12.0968 40.314 13.0254 41.2889L13.0254 41.2888ZM18.5643 43.4742C19.0426 43.4742 19.5221 43.6624 19.8977 44.0381C20.649 44.7894 20.649 45.9597 19.8977 46.711L17.8352 48.7654C17.0839 49.5167 15.9217 49.5167 15.1705 48.7654C14.4192 48.0141 14.4192 46.8519 15.1705 46.1007L17.233 44.0381C17.6086 43.6624 18.086 43.4742 18.5643 43.4742ZM22.6913 47.6012C23.1696 47.6012 23.6471 47.7895 24.0227 48.1652C24.774 48.9165 24.774 50.0766 24.0227 50.8278L21.9602 52.8924C21.2089 53.6436 20.0467 53.6436 19.2955 52.8924C18.5442 52.1411 18.5442 50.979 19.2955 50.2277L21.36 48.1652C21.7356 47.7895 22.213 47.6012 22.6913 47.6012ZM26.8183 51.7262C27.2966 51.7262 27.7741 51.9145 28.1497 52.2901C28.901 53.0414 28.901 54.2036 28.1497 54.9549L26.0872 57.0174C25.336 57.7687 24.1737 57.7687 23.4225 57.0174C22.6712 56.2662 22.6712 55.104 23.4225 54.3527L25.485 52.2901C25.8606 51.9144 26.3401 51.7262 26.8183 51.7262ZM30.9433 55.8532C31.4216 55.8532 31.8991 56.0414 32.2747 56.4171C33.026 57.1684 33.026 58.3287 32.2747 59.08L30.2122 61.1444C29.4609 61.8957 28.2987 61.8957 27.5475 61.1444C26.7962 60.3931 26.7962 59.2309 27.5475 58.4796L29.612 56.4171C29.9876 56.0414 30.4651 55.8532 30.9433 55.8532Z" fill="#728DBD"/>
</svg>
