<svg width="56" height="56" viewBox="0 0 56 56" fill="none" xmlns="http://www.w3.org/2000/svg">
<path d="M55.0693 9.33301H32.6693C32.1538 9.33301 31.7359 9.75091 31.7359 10.2663V18.6663C31.7363 19.1818 32.1545 19.5993 32.67 19.599C32.77 19.5989 32.8694 19.5828 32.9642 19.5511L34.1374 19.1601C35.4112 18.7431 36.7817 19.4377 37.1985 20.7115C37.6154 21.9853 36.9208 23.3558 35.6471 23.7726C35.1566 23.9331 34.6278 23.9331 34.1373 23.7726L32.9641 23.3815C32.475 23.2187 31.9465 23.483 31.7837 23.9721C31.752 24.067 31.7359 24.1664 31.7358 24.2663V31.733H24.2692C23.7537 31.7334 23.3362 32.1516 23.3365 32.667C23.3366 32.767 23.3527 32.8664 23.3844 32.9613L23.7754 34.1345C24.1924 35.4082 23.4978 36.7787 22.224 37.1956C20.9502 37.6125 19.5797 36.9179 19.1629 35.6441C19.0024 35.1537 19.0024 34.6248 19.1629 34.1344L19.554 32.9612C19.7168 32.4721 19.4525 31.9436 18.9634 31.7807C18.8685 31.7491 18.7691 31.733 18.6692 31.7329H10.2693C9.75384 31.7329 9.33594 32.1508 9.33594 32.6662V55.0662C9.33594 55.5817 9.75384 55.9996 10.2693 55.9996H55.0693C55.5847 55.9996 56.0026 55.5817 56.0026 55.0662V10.2663C56.0026 9.75091 55.5847 9.33301 55.0693 9.33301ZM31.7838 46.3721C31.7522 46.467 31.7361 46.5664 31.7359 46.6663V54.133H11.2026V33.5997H17.3747C16.6616 35.861 17.9167 38.2724 20.178 38.9855C22.4394 39.6987 24.8507 38.4436 25.5638 36.1822C25.8289 35.3417 25.8289 34.44 25.5638 33.5996H31.7359V41.0662C31.7363 41.5817 32.1545 41.9992 32.67 41.9989C32.77 41.9987 32.8694 41.9826 32.9642 41.951L34.1374 41.56C35.4112 41.1431 36.7817 41.8376 37.1985 43.1114C37.6154 44.3852 36.9208 45.7556 35.6471 46.1725C35.1566 46.333 34.6278 46.333 34.1373 46.1725L32.9641 45.7814C32.4751 45.6187 31.9466 45.883 31.7838 46.3721ZM54.1359 54.133H33.6026V47.9609C35.864 48.6741 38.2753 47.419 38.9884 45.1576C39.7016 42.8963 38.4465 40.4849 36.1851 39.7718C35.3447 39.5067 34.443 39.5067 33.6025 39.7718V33.5997H41.0692C41.5846 33.5993 42.0021 33.1811 42.0018 32.6656C42.0017 32.5657 41.9856 32.4663 41.954 32.3714L41.5629 31.1982C41.146 29.9244 41.8405 28.554 43.1143 28.1371C44.3881 27.7203 45.7586 28.4148 46.1754 29.6885C46.336 30.179 46.336 30.7079 46.1754 31.1983L45.7844 32.3715C45.6215 32.8606 45.8858 33.3891 46.3749 33.552C46.4698 33.5836 46.5692 33.5997 46.6692 33.5998H54.1358V54.133H54.1359ZM54.1359 31.733H47.9638C48.677 29.4717 47.4219 27.0603 45.1605 26.3472C42.8992 25.634 40.4878 26.8891 39.7747 29.1505C39.5097 29.9909 39.5097 30.8927 39.7747 31.7331H33.6026V25.561C34.8989 25.9811 36.318 25.7544 37.419 24.9515C39.3494 23.5746 39.7981 20.8935 38.4212 18.9631C37.3338 17.4388 35.384 16.7949 33.6026 17.3719V11.1997H54.1359V31.733Z" fill="#728DBD"/>
<path d="M26.8493 8.0388C26.0089 7.77373 25.1071 7.77373 24.2667 8.0388V0.933333C24.2667 0.4179 23.8488 0 23.3333 0H0.933333C0.4179 0 0 0.4179 0 0.933333V23.3333C0 23.8488 0.4179 24.2667 0.933333 24.2667H8.0388C7.32562 26.528 8.58072 28.9394 10.8421 29.6525C13.1034 30.3655 15.5148 29.1105 16.2279 26.8492C16.4929 26.0087 16.4929 25.107 16.2279 24.2666H23.3333C23.8488 24.2666 24.2667 23.8486 24.2667 23.3332V16.2278C26.528 16.9409 28.9394 15.6858 29.6525 13.4245C30.3657 11.1632 29.1107 8.75198 26.8493 8.0388ZM26.3112 14.4396C25.8208 14.6001 25.2919 14.6001 24.8015 14.4396L23.6283 14.0485C23.1392 13.8857 22.6107 14.15 22.4478 14.6391C22.4162 14.7339 22.4001 14.8334 22.4 14.9333V22.4H14.9333C14.4179 22.4004 14.0003 22.8186 14.0007 23.334C14.0008 23.434 14.0169 23.5334 14.0485 23.6283L14.4396 24.8015C14.8566 26.0752 14.1619 27.4457 12.8882 27.8626C11.6144 28.2794 10.2439 27.5849 9.82707 26.3111C9.66653 25.8207 9.66653 25.2918 9.82707 24.8013L10.2181 23.6281C10.381 23.1391 10.1166 22.6106 9.62757 22.4477C9.53272 22.4161 9.43332 22.4 9.33333 22.3999H1.86667V1.86667H22.4V9.33333C22.4004 9.84877 22.8186 10.2663 23.334 10.266C23.434 10.2659 23.5334 10.2498 23.6283 10.2181L24.8015 9.82707C26.0752 9.41022 27.4457 10.1047 27.8626 11.3785C28.2795 12.6522 27.5849 14.0227 26.3112 14.4396Z" fill="#728DBD"/>
</svg>
