<svg width="29" height="29" viewBox="0 0 29 29" fill="none" xmlns="http://www.w3.org/2000/svg">
<path d="M20.9097 9.89906C21.3522 10.3416 21.3522 11.0589 20.9097 11.5011L13.3101 19.1009C12.8676 19.5432 12.1505 19.5432 11.708 19.1009L8.09032 15.483C7.64781 15.0407 7.64781 14.3234 8.09032 13.8812C8.5326 13.4387 9.2499 13.4387 9.69218 13.8812L12.5089 16.6979L19.3076 9.89906C19.7501 9.45677 20.4674 9.45677 20.9097 9.89906ZM29 14.5C29 22.5149 22.5138 29 14.5 29C6.48513 29 0 22.5138 0 14.5C0 6.48513 6.48624 0 14.5 0C22.5149 0 29 6.48624 29 14.5ZM26.7344 14.5C26.7344 7.73742 21.2617 2.26562 14.5 2.26562C7.73742 2.26562 2.26562 7.7383 2.26562 14.5C2.26562 21.2626 7.7383 26.7344 14.5 26.7344C21.2626 26.7344 26.7344 21.2617 26.7344 14.5Z" fill="#BF0403"/>
</svg>
